<?xml version="1.0" encoding="utf-8"?>
<!-- Generator: Adobe Illustrator 26.0.3, SVG Export Plug-In . SVG Version: 6.00 Build 0)  -->
<svg version="1.0" id="katman_1" xmlns="http://www.w3.org/2000/svg" xmlns:xlink="http://www.w3.org/1999/xlink" x="0px" y="0px"
	 viewBox="0 0 779.1 565.2" style="enable-background:new 0 0 779.1 565.2;" xml:space="preserve">
<style type="text/css">
	.st0{fill:#1D1D1B;}
</style>
<path class="st0" d="M329,242h3c16.3,0.6,31.7,10.9,38.1,25.6c5.9,13.1,4.5,29-3.7,40.8c-6.9,10.3-18.6,17.4-31.2,18.7
	c-12.3,1.5-25.1-2.6-34.2-10.8c-9.1-8-14.4-19.9-14.2-31.9c0-12.4,5.9-24.6,15.6-32.5C309.7,245.8,319.3,242.4,329,242z
	 M323.5,257.4c-11.6,2.7-20.5,13.5-21.2,25.2c-1,11.1,5.2,22.4,15.3,27.4c9.5,4.9,21.8,3.6,30-3.2c10.4-8.2,13.5-23.7,7.2-35.2
	C349.4,260.5,335.7,254.1,323.5,257.4z"/>
<path class="st0" d="M93,244.5c4.6-0.9,9.4-0.5,14.1-0.4c1.4-0.2,1.4,1.6,1.4,2.4c0,18.2,0,36.4,0,54.5
	c14.8-18.2,29.6-36.3,44.4-54.5c1-1.2,2.2-2.6,3.9-2.5c5.7-0.2,11.5-0.1,17.3,0c-1.3,2.9-3.5,5.2-5.5,7.6
	c-19.3,23.8-38.7,47.5-58,71.3c-1,1-2,2.4-3.6,2.3c-4.7,0.3-9.4,0.1-14.1-0.1V244.5z"/>
<path class="st0" d="M195,250.1c2-2.5,4.2-5.6,7.8-5.9c4-0.2,8-0.3,12,0c1.3,0.7,0.8,2.2,0.9,3.3c0,22.8,0,45.5,0,68.3
	c0,3.2,0.2,6.4-0.3,9.5c-4.5,0.1-9,0.2-13.4,0.1c-1.6,0.1-2.9-1.1-3.8-2.2c-7.1-8.7-14.2-17.5-21.3-26.2c-7.1,8.7-14.1,17.3-21.1,26
	c-0.9,1-1.9,2.4-3.5,2.4c-5.8,0.2-11.5,0.1-17.3,0c-0.2-1.5,1.1-2.5,1.8-3.6C156.2,297.9,175.6,274,195,250.1z M185.4,284.7
	c4.9,6,9.8,12,14.7,18c0-12,0-24,0-36C195.2,272.7,190.3,278.8,185.4,284.7z"/>
<path class="st0" d="M234.4,247.6c0.2-1.2-0.5-3.3,1.3-3.5c4.7,0.1,9.7-0.7,14.3,0.5c0,22.1,0,44.2,0,66.3c12,0.1,24-0.2,35.9,0.2
	c-1.5,3.6-4.7,6.2-6.9,9.3c-1.8,2-3.4,5.3-6.6,5c-12.6-0.1-25.2,0.3-37.8-0.2C234.1,299.4,234.5,273.5,234.4,247.6z"/>
<path class="st0" d="M387.6,248.5c0.1-1.6-0.6-4.7,2-4.5c20.7-0.1,41.4,0,62.1,0c1.1-0.1,3,0.1,2.7,1.7c0,6.1,0.4,12.2-0.2,18.2
	c-6.3,8.7-13.6,16.8-20.2,25.3c8.9,10.9,17.7,21.8,26.6,32.7c0.8,1.1,1.8,2.1,1.9,3.5c-5.8,0.1-11.5,0.2-17.3,0
	c-2.1,0-3.2-2.1-4.5-3.4c-8.7-11-18-21.7-26.5-32.9c8.2-10.2,16.5-20.3,24.7-30.5c-11.9,0-23.8,0-35.7,0
	c-0.1,22.2,0.2,44.4-0.2,66.7c-5.1,0.4-10.1,0.4-15.2,0C387.3,299.7,387.8,274.1,387.6,248.5z"/>
<path class="st0" d="M475.3,246.6c-0.1-1,0.2-2.7,1.6-2.5c4.5,0,9.1-0.4,13.5,0.2c2.2,1.1,3.4,3.5,5.1,5.3
	c19.5,23.9,38.9,47.8,58.4,71.7c0.9,1.2,2.3,2.4,2.2,4.1c-5.7,0-11.5,0.2-17.2,0c-1.6,0.1-2.7-1.2-3.6-2.3c-7-8.7-14.1-17.4-21.2-26
	c-7.1,8.7-14.2,17.4-21.3,26.2c-0.9,1.1-2.1,2.4-3.8,2.2c-4.1,0.1-8.2,0.1-12.3,0c-1.8,0.2-1.5-2-1.5-3.1
	C475.4,297,475.3,271.8,475.3,246.6z M490.9,266.7c0,12,0,24,0,36c4.9-6,9.8-12,14.7-18C500.7,278.8,495.8,272.7,490.9,266.7z"/>
<path class="st0" d="M544.5,244.7c2.2-1.3,5.1-0.4,7.6-0.7c3.1,0.3,7.1-1.1,9.3,1.8c15.1,18.4,30,36.9,45.1,55.4
	c0.1-18.8-0.2-37.6,0.1-56.3c0.3-0.2,0.7-0.5,1-0.7c4.3-0.2,8.6-0.2,12.9,0c1.9-0.1,1.3,2.3,1.5,3.5c-0.2,25.9,0.2,51.8-0.2,77.6
	c-4.5,0.4-8.9,0.2-13.4,0.2c-1.7,0.1-3-1-3.9-2.2c-14.9-18.3-29.7-36.6-44.6-54.9c-0.1,11.3,0.2,22.6-0.2,34
	c-1.3-0.3-2.2-1.2-2.9-2.2c-3.7-4.7-7.6-9.3-11.3-13.9c-1.6-1.8-1.1-4.2-1.2-6.4C544.5,268.1,544,256.4,544.5,244.7z"/>
<path class="st0" d="M633,244.8c0.8-1.1,2.4-0.7,3.6-0.8c15.3,0,30.7,0,46,0c2.3,0.2,5.2-0.6,7.2,1c3.5,3.7,6.5,7.8,9.8,11.8v1.7
	c-9.3,0.1-18.5,0-27.8,0c-0.1,22.2,0.3,44.5-0.1,66.7c-5.1,0.2-10.2,0.3-15.3-0.1c-0.3-22.2-0.1-44.4-0.2-66.7
	c-7.4-0.1-14.9,0.2-22.3-0.1c-0.2-0.2-0.6-0.6-0.8-0.8C632.7,253.3,632.7,249.1,633,244.8z"/>
</svg>
